<svg width="66" height="76" viewBox="0 0 66 76" fill="none" xmlns="http://www.w3.org/2000/svg">
<path d="M2.496 54.656C2.32533 54.6133 2.28267 54.5067 2.368 54.336L4.416 50.624C3.34933 49.6427 2.816 48.256 2.816 46.464C2.816 44.2027 3.54133 41.3013 4.992 37.76C3.072 36.736 2.112 35.648 2.112 34.496C2.112 32.96 3.92533 32.192 7.552 32.192C10.7093 26.176 13.0987 22.272 14.72 20.48C14.6347 19.328 14.4427 18.3467 14.144 17.536C13.9307 17.5787 13.7173 17.6213 13.504 17.664C13.2907 17.7067 13.0773 17.7707 12.864 17.856C12.2667 18.0267 11.648 18.176 11.008 18.304C10.368 18.432 9.728 18.56 9.088 18.688C8.27733 18.8587 7.53067 19.008 6.848 19.136C6.208 19.2213 5.65333 19.2853 5.184 19.328C5.01333 19.328 4.84267 19.3493 4.672 19.392C4.544 19.392 4.39467 19.392 4.224 19.392C2.00533 19.392 0.896 18.56 0.896 16.896C0.896 16.0427 1.216 15.232 1.856 14.464C3.09333 13.056 5.01333 12.352 7.616 12.352C10.9867 12.352 13.312 13.6533 14.592 16.256C16.8107 15.9147 18.9013 15.6587 20.864 15.488C22.8693 15.3173 24.7253 15.232 26.432 15.232C31.2107 15.232 34.9013 16 37.504 17.536C40.1493 19.1573 41.472 21.2267 41.472 23.744C41.472 25.8773 40.5333 28.0107 38.656 30.144C36.608 32.448 33.8987 34.3467 30.528 35.84C29.9733 36.0533 29.4187 36.288 28.864 36.544C28.3093 36.7573 27.7333 36.9707 27.136 37.184C32.4693 40.0853 35.136 43.8187 35.136 48.384C35.136 48.9813 35.0933 49.5787 35.008 50.176C34.9227 50.816 34.7947 51.456 34.624 52.096C34.4107 52.6933 34.1547 52.992 33.856 52.992C33.6 52.992 33.4933 52.8427 33.536 52.544L33.6 52.096C33.8133 51.328 33.92 50.624 33.92 49.984C33.92 45.632 30.4427 41.7067 23.488 38.208C19.8187 39.0613 16.384 39.488 13.184 39.488C12.7573 39.488 12.352 39.488 11.968 39.488C11.6267 39.488 11.2853 39.4667 10.944 39.424C10.3467 40.7467 9.57867 42.2827 8.64 44.032C7.744 45.7813 6.67733 47.7653 5.44 49.984C5.99467 50.7947 6.72 51.2 7.616 51.2L8.256 51.136H8.448C8.74667 51.136 8.896 51.2853 8.896 51.584C8.896 51.7973 8.768 51.904 8.512 51.904C6.976 51.9893 5.76 51.6907 4.864 51.008L2.88 54.592C2.83733 54.72 2.70933 54.7413 2.496 54.656ZM5.248 17.664C5.84533 17.5787 6.74133 17.4507 7.936 17.28C9.13067 17.1093 10.6027 16.8747 12.352 16.576L13.632 16.384C12.352 14.1227 10.176 12.992 7.104 12.992C4.88533 12.992 3.30667 13.6107 2.368 14.848C2.06933 15.1893 1.92 15.5733 1.92 16C1.92 17.2373 3.02933 17.792 5.248 17.664ZM25.024 36.16C25.8773 35.8613 26.688 35.5413 27.456 35.2C28.224 34.8587 28.9493 34.5173 29.632 34.176C32.4907 32.7253 34.7307 30.9547 36.352 28.864C37.9307 26.9013 38.72 24.9813 38.72 23.104C38.72 20.8 37.632 19.0507 35.456 17.856C33.3653 16.6187 30.5493 16 27.008 16C25.3013 16 23.424 16.128 21.376 16.384C19.3707 16.5973 17.2373 16.9173 14.976 17.344C15.3173 18.112 15.5093 18.944 15.552 19.84C16.1493 19.584 16.704 19.456 17.216 19.456C18.112 19.456 18.56 19.6693 18.56 20.096C18.56 20.2667 18.4533 20.4587 18.24 20.672C17.8987 21.0133 17.5147 21.4613 17.088 22.016C16.6613 22.5707 16.1707 23.2107 15.616 23.936C15.5307 25.3013 15.3173 26.7307 14.976 28.224C14.6347 29.7173 14.1867 31.2533 13.632 32.832C18.0267 33.6 21.824 34.7093 25.024 36.16ZM12.8 32.704C13.2267 31.424 13.5893 30.1867 13.888 28.992C14.1867 27.7547 14.4213 26.5813 14.592 25.472C13.8667 26.5387 13.1413 27.648 12.416 28.8C11.7333 29.952 11.0293 31.1467 10.304 32.384C10.688 32.4267 11.0933 32.4693 11.52 32.512C11.9467 32.5547 12.3733 32.6187 12.8 32.704ZM5.504 36.608C5.71733 36.096 5.93067 35.584 6.144 35.072C6.4 34.56 6.656 34.0267 6.912 33.472C5.12 33.5147 4.224 33.9627 4.224 34.816C4.224 35.3707 4.65067 35.968 5.504 36.608ZM10.496 38.464C10.8373 37.7387 11.1573 37.0133 11.456 36.288C11.7547 35.5627 12.0107 34.8587 12.224 34.176C11.7973 34.0907 11.3707 34.0053 10.944 33.92C10.56 33.8347 10.1973 33.7707 9.856 33.728L9.536 33.664C9.152 34.3467 8.78933 35.0293 8.448 35.712C8.10667 36.3947 7.78667 37.056 7.488 37.696C8.512 38.0373 9.51467 38.2933 10.496 38.464ZM11.392 38.464C14.464 38.592 17.792 38.1867 21.376 37.248C18.816 36.0533 16.0427 35.0933 13.056 34.368C12.8427 35.008 12.5867 35.6693 12.288 36.352C12.032 37.0347 11.7333 37.7387 11.392 38.464ZM5.056 49.344C6.12267 47.3813 7.08267 45.568 7.936 43.904C8.78933 42.1973 9.51467 40.6613 10.112 39.296C9.55733 39.2107 9.024 39.1253 8.512 39.04C8 38.912 7.50933 38.7627 7.04 38.592C5.376 42.0907 4.544 44.6933 4.544 46.4C4.544 47.4667 4.71467 48.448 5.056 49.344Z" fill="black"/>
<path d="M32.984 70.096C30.1253 70.096 27.8213 69.6053 26.072 68.624C24.4507 67.6427 23.64 66.4053 23.64 64.912C23.64 63.6747 24.216 62.416 25.368 61.136C26.3493 60.1547 28.0133 59.1307 30.36 58.064C33.048 56.9547 35.4373 56.4 37.528 56.4C38.8933 56.4 40.0453 56.656 40.984 57.168C41.1547 57.2107 41.24 57.296 41.24 57.424C41.24 57.552 41.1333 57.616 40.92 57.616C40.7067 57.616 40.536 57.5947 40.408 57.552C39.8533 57.424 39.192 57.36 38.424 57.36C36.3333 57.36 34.0293 57.872 31.512 58.896C29.1653 59.8773 27.5653 60.88 26.712 61.904C25.7733 62.9707 25.304 63.9307 25.304 64.784C25.304 65.8933 25.9653 66.7467 27.288 67.344C28.6533 67.984 30.488 68.304 32.792 68.304C33.56 68.304 34.3493 68.2613 35.16 68.176C36.0133 68.1333 36.8667 68.0267 37.72 67.856C41.0907 67.344 43.7573 66.2987 45.72 64.72C47.5547 63.2693 48.472 61.584 48.472 59.664C48.472 57.8293 47.64 56.1867 45.976 54.736C45.6347 56.4427 45.1227 58 44.44 59.408C43.8 60.7733 42.9893 62.0107 42.008 63.12C39.832 65.552 37.144 66.896 33.944 67.152C33.816 67.152 33.7307 67.0667 33.688 66.896C33.688 66.768 33.7733 66.6827 33.944 66.64C37.144 66.384 39.768 65.04 41.816 62.608C43.736 60.3893 44.9093 57.5947 45.336 54.224C44.7813 53.7547 44.1413 53.3067 43.416 52.88C41.3253 51.7707 39.8107 50.7467 38.872 49.808C37.3787 48.4 36.632 46.8213 36.632 45.072C36.632 42.6827 38.1467 40.4213 41.176 38.288C39.0853 36.112 36.568 35.024 33.624 35.024C31.96 35.024 30.2533 35.408 28.504 36.176C27.224 36.7733 26.1787 37.7547 25.368 39.12C24.6 40.4853 24.216 41.8933 24.216 43.344C24.216 44.5387 24.472 45.5627 24.984 46.416C26.008 47.952 27.5013 48.72 29.464 48.72C31.2987 48.72 32.664 48.0373 33.56 46.672C33.6453 46.5867 33.7307 46.544 33.816 46.544C33.944 46.5867 34.008 46.672 34.008 46.8C34.008 47.3547 33.3893 47.9307 32.152 48.528C31.128 48.9547 30.2107 49.168 29.4 49.168C27.224 49.168 25.5813 48.336 24.472 46.672C23.8747 45.7333 23.576 44.6667 23.576 43.472C23.576 41.936 24.0027 40.4213 24.856 38.928C25.752 37.4347 26.904 36.368 28.312 35.728C30.232 34.8747 32.152 34.448 34.072 34.448C37.3573 34.448 40.0453 35.536 42.136 37.712C45.3787 35.7067 48.3013 34.576 50.904 34.32C51.0747 34.2773 51.224 34.256 51.352 34.256C51.5227 34.256 51.6933 34.256 51.864 34.256C54.5947 34.256 56.1093 35.2373 56.408 37.2C56.4933 37.2853 56.4933 37.4347 56.408 37.648L56.344 37.968C56.344 38.096 56.3867 38.1173 56.472 38.032L57.432 37.456H57.56C58.0293 37.456 58.264 37.6693 58.264 38.096C58.264 38.608 58.0293 39.1627 57.56 39.76C55.5547 41.8933 54.3387 42.96 53.912 42.96C53.784 42.96 53.72 42.8747 53.72 42.704C53.72 42.2773 54.1253 41.2747 54.936 39.696C55.2773 39.0133 55.448 38.4587 55.448 38.032C55.448 36.5813 54.3173 35.92 52.056 36.048L50.776 36.112C49.368 36.1547 48.024 36.432 46.744 36.944C45.464 37.4133 44.2267 38.0107 43.032 38.736C45.2933 41.7653 46.424 45.5413 46.424 50.064C46.424 51.0453 46.36 52.0267 46.232 53.008C49.56 54.9707 51.224 57.1893 51.224 59.664C51.224 61.9253 49.7733 64.08 46.872 66.128C44.0987 68.0053 41.0267 69.2 37.656 69.712C35.992 69.968 34.4347 70.096 32.984 70.096ZM45.592 50.896C45.592 46.288 44.44 42.448 42.136 39.376C39.7893 41.168 38.616 43.1093 38.616 45.2C38.616 46.5227 39.1067 47.7173 40.088 48.784C41.0693 49.8507 42.4773 50.896 44.312 51.92L45.592 52.624V50.896Z" fill="black"/>
</svg>
