<svg width="88" height="79" viewBox="0 0 88 79" fill="none" xmlns="http://www.w3.org/2000/svg">
<path d="M11.648 61V9.544H13.568V61H11.648ZM3.2 61V9.544H5.12V61H3.2ZM7.424 61V9.544H9.344V61H7.424ZM15.872 39.496V37.576H30.912C33.344 37.576 35.5413 37.0427 37.504 35.976C39.5093 34.9093 41.088 33.3947 42.24 31.432C43.4347 29.4693 44.032 27.1653 44.032 24.52C44.032 21.8747 43.4347 19.5707 42.24 17.608C41.088 15.6453 39.5093 14.1307 37.504 13.064C35.5413 11.9973 33.344 11.464 30.912 11.464H15.872V9.544H30.912C33.6853 9.544 36.2027 10.184 38.464 11.464C40.768 12.7013 42.5813 14.4507 43.904 16.712C45.2693 18.9307 45.952 21.5333 45.952 24.52C45.952 27.5067 45.2693 30.1307 43.904 32.392C42.5813 34.6107 40.768 36.36 38.464 37.64C36.2027 38.8773 33.6853 39.496 30.912 39.496H15.872ZM15.872 35.272V33.352H30.912C33.3867 33.352 35.4773 32.584 37.184 31.048C38.9333 29.4693 39.808 27.2933 39.808 24.52C39.808 21.7467 38.9333 19.592 37.184 18.056C35.4773 16.4773 33.3867 15.688 30.912 15.688H15.872V13.768H30.912C32.9173 13.768 34.7307 14.216 36.352 15.112C37.9733 15.9653 39.2747 17.2027 40.256 18.824C41.2373 20.4027 41.728 22.3013 41.728 24.52C41.728 26.7387 41.2373 28.6587 40.256 30.28C39.2747 31.8587 37.9733 33.096 36.352 33.992C34.7307 34.8453 32.9173 35.272 30.912 35.272H15.872ZM15.872 31.048V29.128H30.912C32.192 29.128 33.28 28.7653 34.176 28.04C35.1147 27.272 35.584 26.0987 35.584 24.52C35.584 22.8987 35.1147 21.7253 34.176 21C33.28 20.2747 32.192 19.912 30.912 19.912H15.872V17.992H30.912C32.7467 17.992 34.304 18.5467 35.584 19.656C36.864 20.7653 37.504 22.3867 37.504 24.52C37.504 26.6533 36.864 28.2747 35.584 29.384C34.304 30.4933 32.7467 31.048 30.912 31.048H15.872ZM43.328 61L34.304 41.224C34.6027 41.1813 34.9013 41.1387 35.2 41.096C35.5413 41.0107 35.8613 40.904 36.16 40.776L45.44 61H43.328ZM38.656 61L29.76 41.672C30.1013 41.672 30.4427 41.672 30.784 41.672C31.168 41.6293 31.5307 41.5867 31.872 41.544L40.768 61H38.656ZM33.984 61L25.152 41.736H27.264L36.096 61H33.984Z" fill="black"/>
<path d="M60.3763 69.8901C57.3469 69.8901 54.8509 69.3141 52.8883 68.1621C50.9256 66.9674 49.8589 65.3887 49.6883 63.4261L51.5443 62.9141C51.5443 64.3647 52.3549 65.5807 53.9763 66.5621C55.6403 67.5007 57.7736 67.9701 60.3763 67.9701C63.0643 67.9701 65.2403 67.4794 66.9043 66.4981C68.6109 65.5167 69.4643 64.2581 69.4643 62.7221C69.4643 61.2714 68.7603 60.0981 67.3523 59.2021C65.9443 58.3061 64.0243 57.5167 61.5923 56.8341L57.6243 55.6821C52.3336 54.1461 48.3443 52.2047 45.6563 49.8581C42.9683 47.5114 41.6243 44.2901 41.6243 40.194C41.6243 37.25 42.4349 34.6474 44.0563 32.3861C45.7203 30.0821 47.9603 28.2687 50.7763 26.946C53.6349 25.6234 56.8563 24.962 60.4403 24.962C63.6829 24.962 66.6056 25.4954 69.2083 26.562C71.8536 27.586 74.0296 29.058 75.7363 30.9781C77.4856 32.8981 78.5949 35.1381 79.0643 37.6981L77.2083 38.21C76.8243 35.9487 75.8643 33.9647 74.3283 32.258C72.7923 30.5514 70.8296 29.2287 68.4403 28.2901C66.0509 27.3514 63.3843 26.882 60.4403 26.882C57.1976 26.882 54.2963 27.4794 51.7363 28.674C49.2189 29.826 47.2136 31.4047 45.7203 33.41C44.2696 35.4154 43.5443 37.7194 43.5443 40.322C43.5443 43.8207 44.7603 46.6367 47.1923 48.7701C49.6669 50.8607 53.3149 52.5674 58.1363 53.8901L62.1043 54.9781C65.0483 55.7887 67.3309 56.7701 68.9523 57.9221C70.5736 59.0741 71.3843 60.6314 71.3843 62.5941C71.3843 64.7701 70.3816 66.5407 68.3763 67.9061C66.3709 69.2287 63.7043 69.8901 60.3763 69.8901ZM60.3763 74.1141C56.3656 74.1141 52.9949 73.2394 50.2643 71.4901C47.5763 69.6981 45.9976 67.3727 45.5283 64.5141L47.4483 64.0021C47.7896 66.4767 49.1123 68.4607 51.4163 69.9541C53.7629 71.4474 56.7496 72.1941 60.3763 72.1941C63.0216 72.1941 65.3469 71.7887 67.3523 70.9781C69.3576 70.1674 70.9149 69.0367 72.0243 67.5861C73.1336 66.1354 73.6883 64.4714 73.6883 62.5941C73.6883 59.9914 72.7069 57.9434 70.7443 56.4501C68.7816 54.9141 66.0723 53.6767 62.6163 52.7381L58.7123 51.6501C54.5736 50.4981 51.3949 49.0474 49.1763 47.298C46.9576 45.5487 45.8483 43.2234 45.8483 40.322C45.8483 38.146 46.4669 36.226 47.7043 34.562C48.9843 32.8981 50.7336 31.5967 52.9523 30.6581C55.1709 29.6767 57.6669 29.1861 60.4403 29.1861C63.0429 29.1861 65.3683 29.5914 67.4163 30.4021C69.5069 31.1701 71.2136 32.2794 72.5363 33.73C73.8589 35.1807 74.6696 36.8661 74.9683 38.786L73.0483 39.298C72.7496 36.8234 71.4269 34.8394 69.0803 33.3461C66.7763 31.8527 63.8963 31.106 60.4403 31.106C58.0083 31.106 55.8323 31.5114 53.9123 32.322C51.9923 33.09 50.4776 34.178 49.3683 35.586C48.3016 36.9514 47.7683 38.53 47.7683 40.322C47.7683 42.754 48.7283 44.6741 50.6483 46.0821C52.6109 47.49 55.4483 48.7274 59.1603 49.7941L63.0003 50.882C66.9683 51.9914 70.0616 53.4634 72.2803 55.298C74.4989 57.0901 75.6083 59.5221 75.6083 62.5941C75.6083 64.8554 74.9683 66.8607 73.6883 68.6101C72.4083 70.3167 70.6163 71.6607 68.3123 72.6421C66.0509 73.6234 63.4056 74.1141 60.3763 74.1141ZM60.3763 78.3381C57.0483 78.3381 54.0403 77.8261 51.3523 76.8021C48.7069 75.7354 46.5096 74.2634 44.7603 72.3861C43.0536 70.4661 41.9443 68.2047 41.4323 65.6021L43.2883 65.0901C43.7149 67.3941 44.6749 69.3994 46.1683 71.1061C47.7043 72.7701 49.6883 74.0714 52.1203 75.0101C54.5523 75.9487 57.3043 76.4181 60.3763 76.4181C63.8749 76.4181 66.9256 75.8421 69.5283 74.6901C72.1736 73.4954 74.2216 71.8741 75.6723 69.8261C77.1656 67.7354 77.9123 65.3247 77.9123 62.5941C77.9123 58.9674 76.6536 56.0661 74.1363 53.8901C71.6189 51.7141 68.0776 49.9647 63.5123 48.642L59.7363 47.5541C56.6216 46.6581 54.2323 45.6767 52.5683 44.6101C50.9043 43.5434 50.0723 42.1141 50.0723 40.322C50.0723 38.2314 51.0536 36.5674 53.0163 35.3301C54.9789 34.0501 57.4536 33.41 60.4403 33.41C63.3416 33.41 65.7309 34.0074 67.6083 35.202C69.4856 36.3967 70.5523 37.954 70.8083 39.8741L68.9523 40.3861C68.8669 38.8927 68.0349 37.6767 66.4563 36.738C64.9203 35.7994 62.9149 35.3301 60.4403 35.3301C58.0936 35.3301 56.0883 35.7781 54.4243 36.674C52.8029 37.5701 51.9923 38.7434 51.9923 40.194C51.9923 41.5167 52.7389 42.5834 54.2323 43.3941C55.7683 44.2047 57.7736 44.9727 60.2483 45.698L63.8963 46.7861C69.0589 48.3221 73.0056 50.3274 75.7363 52.8021C78.4669 55.2341 79.8323 58.5407 79.8323 62.7221C79.8323 65.7514 79.0003 68.4607 77.3363 70.8501C75.7149 73.1967 73.4323 75.0314 70.4883 76.3541C67.5869 77.6767 64.2163 78.3381 60.3763 78.3381Z" fill="black"/>
</svg>
